# xmcd
#
# Track frame offsets: 
#        150
#        17214
#        36647
#        53302
#        78751
#        97365
#        119789
#
# Disc length: 1865 seconds
#
# Revision: 0
# Processed by: cddbd v1.5.1PL0 Copyright (c) Steve Scherf et al.
# Submitted via: ExactAudioCopy v0.95a5
#
DISCID=5b074707
DTITLE=Kamary Phillips - Every Little Thing
DYEAR=1900
DGENRE=Soul
TTITLE0=n word
TTITLE1=sunshine
TTITLE2=if it ain`t love
TTITLE3=to be loved
TTITLE4=every little thing
TTITLE5=goodbye
TTITLE6=never gonna stop
EXTD=
EXTT0=
EXTT1=
EXTT2=
EXTT3=
EXTT4=
EXTT5=
EXTT6=
PLAYORDER=
